<?xml version="1.0" encoding="UTF-8"?>
<svg xmlns="http://www.w3.org/2000/svg" width="214" height="53" viewBox="0 0 214 53" fill="none">
  <g clip-path="url(#clip0_305_616)">
    <path d="M8.37082 39.3475C5.79767 37.8984 3.67097 35.7717 2.2219 33.1985C0.764118 30.5366 0 27.5504 0 24.5154C0 21.4804 0.764118 18.4942 2.2219 15.8322C3.67448 13.2776 5.8017 11.1716 8.37082 9.74479C11.0517 8.24247 14.0822 7.47576 17.155 7.5224C20.4455 7.46127 23.68 8.37844 26.4486 10.1577C29.0542 11.7963 31.0221 14.2755 32.0266 17.185L25.1925 20.1804C24.5952 18.5579 23.5047 17.1633 22.0741 16.1924C20.6728 15.2724 19.0412 14.7648 17.3653 14.7275C15.6894 14.6903 14.0368 15.1248 12.596 15.9816C11.2245 16.8356 10.115 18.0514 9.38978 19.4952C8.62105 21.0727 8.22154 22.8045 8.22154 24.5593C8.22154 26.3141 8.62105 28.0459 9.38978 29.6234C10.115 31.0672 11.2245 32.283 12.596 33.1371C13.9675 33.9758 15.5475 34.4111 17.155 34.3932C18.9162 34.4322 20.6454 33.9193 22.1005 32.9262C23.5327 31.9365 24.615 30.519 25.1925 28.8767L32.0266 31.9951C31.036 34.8768 29.0772 37.326 26.4838 38.9258C23.7008 40.702 20.456 41.6186 17.155 41.5611C14.0823 41.6167 11.0502 40.8526 8.37082 39.3475Z" fill="white"></path>
    <path d="M36.8322 39.0762C35.8345 38.2458 35.0419 37.1963 34.5163 36.0094C33.9906 34.8225 33.7461 33.5302 33.8017 32.2333C33.7646 30.96 33.9966 29.6931 34.4825 28.5155C34.9683 27.3379 35.6972 26.276 36.6214 25.3993C38.5012 23.5956 41.318 22.398 45.0718 21.8065L54.7959 20.243V19.1625C54.8083 18.4894 54.6658 17.8225 54.3795 17.2133C54.0931 16.604 53.6706 16.0688 53.1444 15.6488C51.8943 14.6752 50.3347 14.1855 48.7524 14.2697C47.1573 14.2429 45.5939 14.7159 44.2812 15.6225C42.9979 16.5006 42.0067 17.7427 41.4351 19.1888L35.0139 16.0705C36.0145 13.4776 37.8751 11.3069 40.2844 9.92155C42.9342 8.33063 45.9784 7.51783 49.0686 7.57618C51.4921 7.53435 53.8939 8.03873 56.0959 9.05191C58.0608 9.94234 59.7285 11.3784 60.9009 13.1893C62.0427 14.9895 62.6349 17.0836 62.605 19.2152V40.8945H55.1736V37.3809C53.8789 38.7749 52.2978 39.872 50.5388 40.5968C48.7799 41.3216 46.8848 41.6569 44.9839 41.5797C41.564 41.5914 38.8467 40.7569 36.8322 39.0762ZM43.2183 34.6051C44.1531 35.2975 45.2974 35.6479 46.4597 35.5977C47.5625 35.6372 48.6619 35.4529 49.6916 35.0558C50.7212 34.6587 51.6597 34.0572 52.4505 33.2874C53.2153 32.5462 53.8185 31.6547 54.2221 30.6691C54.6257 29.6834 54.8211 28.625 54.7959 27.5602V26.2425L46.5739 27.6216C45.2861 27.8046 44.072 28.3327 43.0602 29.1501C42.6955 29.5122 42.4121 29.9478 42.2288 30.4279C42.0455 30.908 41.9666 31.4217 41.9973 31.9347C41.9727 32.445 42.0707 32.9537 42.2832 33.4183C42.4956 33.8829 42.8163 34.2899 43.2183 34.6051Z" fill="white"></path>
    <path d="M65.3975 8.24196H72.741V12.0806C73.9498 10.6329 75.4771 9.4845 77.2034 8.72509C79.1195 7.89059 81.1924 7.4772 83.282 7.51287C86.1983 7.49125 89.0658 8.26078 91.5794 9.73955C94.093 11.2183 96.1586 13.351 97.5563 15.9105C98.9669 18.5717 99.7044 21.5378 99.7044 24.5498C99.7044 27.5617 98.9669 30.5278 97.5563 33.189C96.1604 35.7635 94.0867 37.9071 91.5597 39.3873C89.0327 40.8676 86.1489 41.6282 83.2205 41.5867C81.3159 41.603 79.4247 41.2665 77.6426 40.5941C75.9869 39.9804 74.4871 39.0085 73.2505 37.748V52.8568H65.3975V8.24196ZM74.4276 29.6226C75.1558 31.0728 76.2756 32.29 77.6602 33.1363C79.0619 33.9795 80.6713 34.4146 82.307 34.3924C83.547 34.4277 84.7803 34.1974 85.9241 33.7172C87.0679 33.2369 88.0958 32.5177 88.939 31.6078C90.7049 29.7016 91.6513 27.1779 91.5743 24.5805C91.5787 22.8235 91.1439 21.0933 90.3094 19.5472C89.5461 18.1019 88.4084 16.8883 87.0153 16.0335C85.5911 15.1998 83.9705 14.7603 82.3202 14.7603C80.6698 14.7603 79.0493 15.1998 77.625 16.0335C76.2405 16.8799 75.1207 18.097 74.3925 19.5472C73.618 21.123 73.2152 22.8554 73.2152 24.6113C73.2152 26.3671 73.618 28.0995 74.3925 29.6753L74.4276 29.6226Z" fill="white"></path>
    <path d="M108.37 38.2057C106.35 36.1854 105.34 33.3364 105.34 29.6587V15.2615H99.7002V8.23415H100.306C101.662 8.32222 102.998 7.87068 104.022 6.97801C104.483 6.49325 104.837 5.91816 105.064 5.28916C105.291 4.66015 105.385 3.99091 105.34 3.32379V0.802734H113.201V8.23415H120.694V15.2615H113.201V29.2371C113.201 32.6395 115.04 34.3378 118.718 34.3319C119.421 34.3295 120.123 34.2707 120.817 34.1562V40.9376C119.527 41.1344 118.223 41.2343 116.917 41.2363C113.234 41.2363 110.385 40.2261 108.37 38.2057Z" fill="white"></path>
    <path d="M130.717 39.3127C128.216 37.8404 126.163 35.7147 124.779 33.1638C123.377 30.4952 122.645 27.5259 122.645 24.5114C122.645 21.497 123.377 18.5276 124.779 15.859C126.139 13.3218 128.168 11.2057 130.645 9.74066C133.123 8.27563 135.955 7.51767 138.834 7.54916C141.815 7.47401 144.76 8.21192 147.354 9.68372C149.702 11.0438 151.605 13.0543 152.836 15.4725C154.11 17.958 154.758 20.717 154.724 23.51C154.755 24.6227 154.616 25.7335 154.311 26.8041H130.805C130.93 28.9984 131.911 31.0559 133.537 32.5344C135.163 34.0128 137.305 34.7939 139.501 34.7098C141.084 34.7562 142.65 34.3738 144.034 33.603C145.298 32.8597 146.342 31.7923 147.056 30.511L153.415 33.6382C152.356 36.1013 150.5 38.137 148.145 39.4181C145.496 40.918 142.492 41.6766 139.448 41.6142C136.382 41.6639 133.361 40.8676 130.717 39.3127ZM146.344 20.7781C146.206 18.9128 145.368 17.1685 143.999 15.8941C142.593 14.6142 140.742 13.9362 138.842 14.0055C136.987 13.9522 135.176 14.5768 133.748 15.7624C132.28 17.0644 131.305 18.8328 130.989 20.7693L146.344 20.7781Z" fill="white"></path>
    <path d="M156.569 8.24369H163.948V12.2668C164.787 10.744 166.075 9.51696 167.637 8.75318C169.362 7.91089 171.261 7.48943 173.18 7.52339C175.399 7.49098 177.589 8.02939 179.54 9.08697C181.398 10.0949 182.924 11.6207 183.932 13.4791C184.998 15.4489 185.537 17.6609 185.496 19.9003V40.8945H177.625V21.745C177.712 19.8679 177.052 18.0329 175.789 16.6414C174.507 15.4125 172.8 14.7264 171.024 14.7264C169.248 14.7264 167.54 15.4125 166.258 16.6414C164.996 18.0329 164.336 19.8679 164.422 21.745V40.8945H156.569V8.24369Z" fill="white"></path>
    <path d="M192.619 39.1983C190.193 37.7081 188.337 35.447 187.349 32.7771L193.164 29.7729C193.951 31.43 195.163 32.8486 196.677 33.8839C198.1 34.8569 199.785 35.3718 201.509 35.3596C202.766 35.4288 204.012 35.1032 205.075 34.4285C205.487 34.1447 205.821 33.7619 206.047 33.3153C206.273 32.8686 206.382 32.3724 206.366 31.8723C206.372 31.4319 206.278 30.9959 206.091 30.5972C205.904 30.1985 205.629 29.8476 205.286 29.5708C204.476 28.9103 203.501 28.4849 202.466 28.3411L197.125 27.4626C194.668 26.9184 192.438 25.6301 190.739 23.7733C189.407 22.1991 188.621 20.236 188.497 18.1775C188.374 16.1191 188.92 14.076 190.054 12.3539C191.136 10.7765 192.644 9.53949 194.402 8.78749C196.395 7.91659 198.552 7.48516 200.727 7.52257C203.512 7.4658 206.255 8.20643 208.633 9.65713C210.884 11.0389 212.63 13.1086 213.613 15.5601L207.798 18.5643C207.167 17.1795 206.144 16.0099 204.855 15.1999C203.544 14.3638 202.018 13.9274 200.463 13.9438C199.344 13.8804 198.235 14.1893 197.31 14.8222C196.941 15.091 196.643 15.4443 196.44 15.8525C196.236 16.2606 196.134 16.7117 196.142 17.1676C196.142 18.9244 197.462 20.0957 200.103 20.6813L205.321 21.6387C207.778 22.2178 210.009 23.5106 211.734 25.3544C213.078 26.9066 213.874 28.8578 213.999 30.9072C214.125 32.9566 213.572 34.9904 212.427 36.6948C211.293 38.2596 209.745 39.4766 207.956 40.2085C205.847 41.0819 203.58 41.5096 201.298 41.4646C198.248 41.5499 195.238 40.7637 192.619 39.1983Z" fill="white"></path>
    <path d="M87.0334 46.1279H80.2872C78.4243 46.1279 76.9141 47.6381 76.9141 49.5011C76.9141 51.364 78.4243 52.8742 80.2872 52.8742H87.0334C88.8964 52.8742 90.4066 51.364 90.4066 49.5011C90.4066 47.6381 88.8964 46.1279 87.0334 46.1279Z" fill="#01D5E1"></path>
    <path d="M117.673 46.1279H97.4434C95.5805 46.1279 94.0703 47.6381 94.0703 49.5011C94.0703 51.364 95.5805 52.8742 97.4434 52.8742H117.673C119.536 52.8742 121.047 51.364 121.047 49.5011C121.047 47.6381 119.536 46.1279 117.673 46.1279Z" fill="#FE6BA2"></path>
    <path d="M161.049 46.1279H128.082C126.219 46.1279 124.709 47.6381 124.709 49.5011C124.709 51.364 126.219 52.8742 128.082 52.8742H161.049C162.912 52.8742 164.422 51.364 164.422 49.5011C164.422 47.6381 162.912 46.1279 161.049 46.1279Z" fill="#FF8902"></path>
  </g>
  <defs>
    <clipPath id="clip0_305_616">
      <rect width="214" height="52.0638" fill="white" transform="translate(0 0.811523)"></rect>
    </clipPath>
  </defs>
</svg>
